<?xml version="1.0" encoding="UTF-8"?>
<svg width="1024px" height="1024px" viewBox="0 0 1024 1024" version="1.1" xmlns="http://www.w3.org/2000/svg" xmlns:xlink="http://www.w3.org/1999/xlink">
    <title>Icon Artboard</title>
    <defs>
        <linearGradient x1="50%" y1="-3.02450737e-14%" x2="50%" y2="98.6610368%" id="linearGradient-1">
            <stop stop-color="#90549D" offset="0%"></stop>
            <stop stop-color="#58388E" offset="100%"></stop>
        </linearGradient>
    </defs>
    <g id="Icon-Artboard" stroke="none" stroke-width="1" fill="none" fill-rule="evenodd">
        <g id="BG" fill="url(#linearGradient-1)">
            <rect x="0" y="0" width="1024" height="1024"></rect>
        </g>
        <g id="app-(1)" transform="translate(512.000000, 464.500000) rotate(-90.000000) translate(-512.000000, -464.500000) translate(200.500000, 211.500000)" fill="#FFFFFF" fill-rule="nonzero">
            <g id="Group" transform="translate(0.498069, 0.500000)">
                <path d="M90.6609305,454.584417 L90.6609305,52.159417 C87.5019305,-19.4999997 0.107117325,-13.6329977 0.0359305019,52.159417 L0.0359305019,454.584417 C0.107117325,520.376832 92.0019305,522.5 90.6609305,454.584417 Z" id="Path"></path>
                <path d="M479.235181,96.42725 C471.069622,88.2616917 459.168062,85.0726781 448.013702,88.0614797 C436.859342,91.0502814 428.146795,99.7628283 425.157994,110.917188 C422.169192,122.071548 425.358206,133.973109 433.523764,142.138667 L513.572597,217.1875 L185.355514,217.1875 C167.509813,217.1875 153.043014,236.654299 153.043014,254.5 C153.043014,272.345701 167.509813,291.8125 185.355514,291.8125 L513.402597,291.8125 L433.523764,361.64825 C421.272111,374.321197 421.437674,394.474886 433.895876,406.944842 C446.354079,419.414797 466.507603,419.599364 479.192097,407.359667 L611.802597,274.749167 C624.414373,262.145501 624.433653,241.708273 611.845681,229.080833 L479.235181,96.42725 Z" id="Path" transform="translate(387.158536, 251.689553) scale(-1, 1) translate(-387.158536, -251.689553) "></path>
            </g>
        </g>
    </g>
</svg>